<svg width="16" height="15" viewBox="0 0 16 15" fill="none" xmlns="http://www.w3.org/2000/svg">
<g opacity="0.5">
<path d="M3.13086 5.61683L7.89477 10.5835L12.6587 5.61683C12.7881 5.48146 12.8588 5.29983 12.8553 5.11191C12.8519 4.92398 12.7744 4.74515 12.6401 4.61475C12.5057 4.48435 12.3254 4.41307 12.1389 4.41658C11.9524 4.4201 11.7749 4.49813 11.6455 4.6335L7.89477 8.546L4.13988 4.6335C4.01046 4.49813 3.83298 4.4201 3.64646 4.41658C3.45995 4.41307 3.27969 4.48435 3.14533 4.61475C3.01098 4.74515 2.93354 4.92398 2.93005 5.11191C2.92656 5.29983 2.99731 5.48146 3.12673 5.61683H3.13086Z" fill="#152144"/>
</g>
</svg>
