<svg width="12" height="10" viewBox="0 0 12 10" fill="none" xmlns="http://www.w3.org/2000/svg">
<path d="M10.8767 5.89137H9.09179V4.17346H10.8767C11.0294 4.17346 11.1528 4.05598 11.1528 3.91056C11.1528 3.76514 11.0294 3.64765 10.8767 3.64765H9.09179V0.263564C9.09179 0.118145 8.96843 0.000660807 8.81573 0.000660807C8.66304 0.000660807 8.53967 0.118145 8.53967 0.263564V3.64765H5.12005L2.79165 0.123069C2.72608 0.0236576 2.59927 -0.0223504 2.48109 0.0105125C2.36291 0.0433754 2.28181 0.146072 2.28181 0.263552V3.64764H0.276061C0.123364 3.64764 -7.26547e-08 3.76512 -7.26547e-08 3.91054C-7.26547e-08 4.05596 0.123364 4.17345 0.276061 4.17345H2.28181V5.89136H0.276061C0.123364 5.89136 -7.26547e-08 6.00885 -7.26547e-08 6.15427C-7.26547e-08 6.29968 0.123364 6.41717 0.276061 6.41717H2.28181V9.73627C2.28181 9.88169 2.40517 9.99917 2.55787 9.99917C2.71057 9.99917 2.83393 9.88169 2.83393 9.73627V6.41717H6.29684L8.58218 9.87677C8.63394 9.95481 8.7228 10 8.81597 10C8.84185 10 8.86687 9.99671 8.89275 9.99014C9.01094 9.95728 9.09203 9.85458 9.09203 9.7371V6.41716H10.8769C11.0296 6.41716 11.153 6.29968 11.153 6.15426C11.153 6.00884 11.0296 5.89135 10.8769 5.89135L10.8767 5.89137ZM8.53967 4.17346V5.89137H6.60208L5.46765 4.17346H8.53967ZM2.83383 1.17552L4.46689 3.64765H2.83383V1.17552ZM2.83383 5.89137V4.17346H4.81458L5.94901 5.89137H2.83383ZM8.53967 8.82432L6.94888 6.41718H8.53967V8.82432Z" fill="#222222"/>
</svg>
