<svg width="29" height="29" viewBox="0 0 29 29" fill="none" xmlns="http://www.w3.org/2000/svg">
<path d="M22.1768 19.3334C21.6342 19.3354 21.0977 19.4471 20.5993 19.6617C20.101 19.8762 19.6512 20.1893 19.2768 20.582L9.45706 15.6681C9.69862 14.9356 9.69862 14.145 9.45706 13.4125L19.2929 8.41003C19.9974 9.15246 20.9528 9.60641 21.9734 9.68366C22.994 9.76091 24.0068 9.45594 24.815 8.82803C25.6233 8.20011 26.1692 7.29411 26.3467 6.28612C26.5241 5.27813 26.3205 4.24017 25.7753 3.37397C25.2301 2.50777 24.3823 1.87522 23.3967 1.59927C22.4111 1.32332 21.3581 1.42369 20.4424 1.88085C19.5267 2.33802 18.8137 3.11933 18.4419 4.07293C18.0702 5.02652 18.0663 6.08427 18.431 7.04059L8.69179 11.9948C8.1658 11.3515 7.45372 10.8866 6.65318 10.6639C5.85263 10.4412 5.0028 10.4716 4.22017 10.7508C3.43755 11.03 2.76044 11.5445 2.28167 12.2236C1.8029 12.9028 1.5459 13.7134 1.5459 14.5443C1.5459 15.3753 1.8029 16.1859 2.28167 16.865C2.76044 17.5442 3.43755 18.0587 4.22017 18.3379C5.0028 18.6171 5.85263 18.6475 6.65318 18.4248C7.45372 18.2021 8.1658 17.7372 8.69179 17.0939L18.4068 21.9836C18.2426 22.4244 18.1581 22.8908 18.1571 23.3611C18.1571 24.1578 18.3933 24.9365 18.8359 25.5989C19.2784 26.2612 19.9075 26.7775 20.6435 27.0823C21.3795 27.3872 22.1893 27.4669 22.9706 27.3115C23.7519 27.1561 24.4696 26.7725 25.0329 26.2092C25.5962 25.6459 25.9798 24.9282 26.1352 24.1469C26.2906 23.3656 26.2109 22.5558 25.906 21.8198C25.6012 21.0838 25.0849 20.4547 24.4226 20.0122C23.7602 19.5696 22.9815 19.3334 22.1848 19.3334H22.1768Z" fill="#7E8598"/>
</svg>
